<?xml version="1.0" encoding="UTF-8"?>
<svg width="27px" height="27px" viewBox="0 0 27 27" version="1.1" xmlns="http://www.w3.org/2000/svg" xmlns:xlink="http://www.w3.org/1999/xlink">
    <!-- Generator: Sketch 55.2 (78181) - https://sketchapp.com -->
    <title>toy</title>
    <desc>Created with Sketch.</desc>
    <g id="my" stroke="none" stroke-width="1" fill="none" fill-rule="evenodd">
        <g id="Home" transform="translate(-237.000000, -358.000000)" fill="#3F444A" fill-rule="nonzero">
            <g id="toy" transform="translate(237.000000, 358.000000)">
                <path d="M23.1428975,11.5713963 L23.1428975,4.82139629 C23.1428975,4.28881825 22.7111728,3.85709443 22.1785936,3.85709443 L15.428636,3.85709443 C15.428636,1.72689529 13.7017371,0 11.571477,0 C9.44121691,0 7.714318,1.72689529 7.714318,3.85715093 L0.964360376,3.85715093 C0.431781228,3.85715093 0,4.28887475 0,4.82139629 L0,13.2858614 C0,13.8184394 0.432063733,14.2500502 0.964586381,14.2498807 C1.20273842,14.2498242 1.4324153,14.1616262 1.60943317,14.0022935 C2.39711468,13.2852964 3.61685992,13.3425883 4.33385858,14.1302682 C5.05085725,14.9179481 4.99356516,16.1376907 4.20588365,16.8546879 C3.47001362,17.5245633 2.34530319,17.5245633 1.60943317,16.8546879 C1.21358663,16.4983929 0.603883507,16.5304854 0.247587718,16.9262746 C0.0882546817,17.1032921 0,17.3329685 0,17.5711201 L0,26.0356416 C0,26.5682197 0.431724727,27 0.964303875,27 L9.42878667,27 C9.96136582,27 10.3929775,26.5679937 10.392808,26.0354156 C10.3927515,25.7972641 10.3045534,25.5675877 10.1452203,25.3905702 C9.42822166,24.6028903 9.48551375,23.3831476 10.2731953,22.6661505 C11.0608768,21.9491533 12.280622,22.0064453 12.9976207,22.7941252 C13.6674974,23.5299936 13.6674974,24.6547017 12.9976207,25.3905702 C12.6413249,25.7864159 12.6734175,26.3961178 13.0692075,26.7524128 C13.2462254,26.9117455 13.4759023,27 13.7140543,27 L22.1785371,27 C22.7111163,27 23.142841,26.5682762 23.142841,26.0356981 L23.142841,19.2856416 C25.2731011,19.2856416 27,17.5587463 27,15.4284907 C27,13.2982351 25.2731576,11.5713963 23.1428975,11.5713963 Z M23.1428975,17.3570944 C22.9234473,17.3538174 22.7062007,17.3127412 22.5007063,17.2356174 C21.9987507,17.0577524 21.4475827,17.3204818 21.2697173,17.8224363 C21.2331046,17.9256636 21.2144028,18.0344279 21.2143463,18.1439268 L21.2143463,25.0713398 L15.3032601,25.0713398 C15.3865992,24.7566859 15.428749,24.4325399 15.428636,24.1070379 C15.428636,21.9767823 13.7017371,20.249887 11.571477,20.249887 C9.44121691,20.249887 7.714318,21.9767823 7.714318,24.1070379 C7.714205,24.4325399 7.7563548,24.7566859 7.83969389,25.0713398 L1.92860775,25.0713398 L1.92860775,19.1603225 C2.24326225,19.2436614 2.56740892,19.2858111 2.89291163,19.2856981 C5.02317172,19.2856981 6.75007063,17.5588028 6.75007063,15.4285472 C6.75007063,13.2982916 5.02317172,11.5713963 2.89291163,11.5713963 C2.56740892,11.5712833 2.24326225,11.613433 1.92860775,11.6967719 L1.92860775,5.78569814 L8.85603526,5.78569814 C9.38861441,5.78541564 9.82005663,5.35340931 9.81977412,4.82088778 C9.81971762,4.71133242 9.80095926,4.60262457 9.76440307,4.49934082 C9.6872791,4.29384684 9.64614631,4.07660065 9.64292575,3.85715093 C9.64292575,2.79205136 10.5063752,1.92860371 11.571477,1.92860371 C12.6365788,1.92860371 13.5000283,2.79205136 13.5000283,3.85715093 C13.4967512,4.07660065 13.4556749,4.29384684 13.3785509,4.49934082 C13.2006855,5.00129534 13.4634156,5.55246219 13.9653711,5.7303272 C14.0685986,5.76693982 14.1773632,5.78564164 14.2868622,5.78569814 L21.2142898,5.78569814 L21.2142898,12.7131112 C21.2145723,13.2456892 21.6465795,13.6771305 22.1791021,13.676848 C22.2886577,13.6767915 22.3973658,13.6580332 22.5005933,13.6214771 C22.7060877,13.5443533 22.9233343,13.5032206 23.1427845,13.5 C24.2078863,13.5 25.0713357,14.3634476 25.0713357,15.4285472 C25.0713357,16.4936468 24.2079993,17.3570944 23.1428975,17.3570944 Z" id="Shape"></path>
            </g>
        </g>
    </g>
</svg>