{
    "asset":{
        "generator" : "Khronos glTF Blender I/O v1.2.75",
        "version" : "2.0"
    },
    "scene" : 0,
    "scenes" : [
        {
            "name" : "Scene",
            "nodes" : [
                0
            ]
        }
    ],
    "nodes" : [
        {
            "mesh" : 0,
            "name" : "Circle",
            "scale" : [
                1.1385111808776855,
                1.1385111808776855,
                1.1385111808776855
            ],
            "translation" : [
                1.8021548986434937,
                0.6112706661224365,
                2.1402900218963623
            ]
        }
    ],
    "materials" : [
        {
            "doubleSided" : true,
            "emissiveFactor" : [
                0,
                0,
                0
            ],
            "name" : "metal",
            "pbrMetallicRoughness" : {
                "baseColorFactor" : [
                    0.5596007704734802,
                    0.3817894756793976,
                    0.2848908007144928,
                    1
                ],
                "metallicFactor" : 1,
                "roughnessFactor" : 0.5
            }
        },
        {
            "doubleSided" : true,
            "emissiveFactor" : [
                0.033382564783096313,
                0.3899396061897278,
                1
            ],
            "name" : "light",
            "pbrMetallicRoughness" : {}
        },
        {
            "doubleSided" : true,
            "emissiveFactor" : [
                0,
                0,
                0
            ],
            "name" : "Ground",
            "pbrMetallicRoughness" : {
                "baseColorFactor" : [
                    0.8000000715255737,
                    0.5651347637176514,
                    0.34005072712898254,
                    1
                ],
                "metallicFactor" : 0,
                "roughnessFactor" : 0.5
            }
        },
        {
            "doubleSided" : true,
            "emissiveFactor" : [
                0,
                0,
                0
            ],
            "name" : "Ground.001",
            "pbrMetallicRoughness" : {
                "baseColorFactor" : [
                    0.27383163571357727,
                    0.19591543078422546,
                    0.12050197273492813,
                    1
                ],
                "metallicFactor" : 0,
                "roughnessFactor" : 0.5
            }
        },
        {
            "doubleSided" : true,
            "emissiveFactor" : [
                0,
                0,
                0
            ],
            "name" : "crystal",
            "pbrMetallicRoughness" : {
                "baseColorFactor" : [
                    0.012741673737764359,
                    0.6477745175361633,
                    0.8000000715255737,
                    1
                ],
                "metallicFactor" : 0,
                "roughnessFactor" : 0.30000001192092896
            }
        },
        {
            "doubleSided" : true,
            "emissiveFactor" : [
                0,
                0,
                0
            ],
            "name" : "Leaf",
            "pbrMetallicRoughness" : {
                "baseColorFactor" : [
                    0.06486642360687256,
                    0.8000000715255737,
                    0.1679089516401291,
                    1
                ],
                "metallicFactor" : 0,
                "roughnessFactor" : 0.5
            }
        }
    ],
    "meshes" : [
        {
            "name" : "Circle",
            "primitives" : [
                {
                    "attributes" : {
                        "POSITION" : 0,
                        "NORMAL" : 1,
                        "TEXCOORD_0" : 2
                    },
                    "indices" : 3,
                    "material" : 0
                },
                {
                    "attributes" : {
                        "POSITION" : 4,
                        "NORMAL" : 5,
                        "TEXCOORD_0" : 6
                    },
                    "indices" : 7,
                    "material" : 1
                },
                {
                    "attributes" : {
                        "POSITION" : 8,
                        "NORMAL" : 9,
                        "TEXCOORD_0" : 10
                    },
                    "indices" : 11,
                    "material" : 2
                },
                {
                    "attributes" : {
                        "POSITION" : 12,
                        "NORMAL" : 13,
                        "TEXCOORD_0" : 14
                    },
                    "indices" : 15,
                    "material" : 3
                },
                {
                    "attributes" : {
                        "POSITION" : 16,
                        "NORMAL" : 17,
                        "TEXCOORD_0" : 18
                    },
                    "indices" : 19,
                    "material" : 4
                },
                {
                    "attributes" : {
                        "POSITION" : 20,
                        "NORMAL" : 21,
                        "TEXCOORD_0" : 22
                    },
                    "indices" : 23,
                    "material" : 5
                }
            ]
        }
    ],
    "accessors" : [
        {
            "bufferView" : 0,
            "componentType" : 5126,
            "count" : 1759,
            "max" : [
                1.7195144891738892,
                1.347267508506775,
                1.5291744470596313
            ],
            "min" : [
                -2.195582628250122,
                -1.4901161193847656e-08,
                -2.38592267036438
            ],
            "type" : "VEC3"
        },
        {
            "bufferView" : 1,
            "componentType" : 5126,
            "count" : 1759,
            "type" : "VEC3"
        },
        {
            "bufferView" : 2,
            "componentType" : 5126,
            "count" : 1759,
            "type" : "VEC2"
        },
        {
            "bufferView" : 3,
            "componentType" : 5123,
            "count" : 3096,
            "type" : "SCALAR"
        },
        {
            "bufferView" : 4,
            "componentType" : 5126,
            "count" : 52,
            "max" : [
                1.4455336332321167,
                0.6305053234100342,
                1.2551935911178589
            ],
            "min" : [
                -1.9216015338897705,
                0.6305053234100342,
                -2.1119415760040283
            ],
            "type" : "VEC3"
        },
        {
            "bufferView" : 5,
            "componentType" : 5126,
            "count" : 52,
            "type" : "VEC3"
        },
        {
            "bufferView" : 6,
            "componentType" : 5126,
            "count" : 52,
            "type" : "VEC2"
        },
        {
            "bufferView" : 7,
            "componentType" : 5123,
            "count" : 144,
            "type" : "SCALAR"
        },
        {
            "bufferView" : 8,
            "componentType" : 5126,
            "count" : 6288,
            "max" : [
                1.9304553270339966,
                0.4906969666481018,
                1.6334575414657593
            ],
            "min" : [
                -5.0962653160095215,
                -1.7546114921569824,
                -5.39326286315918
            ],
            "type" : "VEC3"
        },
        {
            "bufferView" : 9,
            "componentType" : 5126,
            "count" : 6288,
            "type" : "VEC3"
        },
        {
            "bufferView" : 10,
            "componentType" : 5126,
            "count" : 6288,
            "type" : "VEC2"
        },
        {
            "bufferView" : 11,
            "componentType" : 5123,
            "count" : 6546,
            "type" : "SCALAR"
        },
        {
            "bufferView" : 12,
            "componentType" : 5126,
            "count" : 3520,
            "max" : [
                2.038334846496582,
                1.6869869232177734,
                1.5024399757385254
            ],
            "min" : [
                -5.526681900024414,
                -1.6499040126800537,
                -5.6171956062316895
            ],
            "type" : "VEC3"
        },
        {
            "bufferView" : 13,
            "componentType" : 5126,
            "count" : 3520,
            "type" : "VEC3"
        },
        {
            "bufferView" : 14,
            "componentType" : 5126,
            "count" : 3520,
            "type" : "VEC2"
        },
        {
            "bufferView" : 15,
            "componentType" : 5123,
            "count" : 6600,
            "type" : "SCALAR"
        },
        {
            "bufferView" : 16,
            "componentType" : 5126,
            "count" : 1820,
            "max" : [
                1.4398318529129028,
                2.759260892868042,
                0.8240724205970764
            ],
            "min" : [
                -4.779417514801025,
                -0.35701510310173035,
                -5.343695163726807
            ],
            "type" : "VEC3"
        },
        {
            "bufferView" : 17,
            "componentType" : 5126,
            "count" : 1820,
            "type" : "VEC3"
        },
        {
            "bufferView" : 18,
            "componentType" : 5126,
            "count" : 1820,
            "type" : "VEC2"
        },
        {
            "bufferView" : 19,
            "componentType" : 5123,
            "count" : 2964,
            "type" : "SCALAR"
        },
        {
            "bufferView" : 20,
            "componentType" : 5126,
            "count" : 192,
            "max" : [
                1.4279086589813232,
                0.34249985218048096,
                1.4677190780639648
            ],
            "min" : [
                -3.5867254734039307,
                0.0558512844145298,
                -3.3651633262634277
            ],
            "type" : "VEC3"
        },
        {
            "bufferView" : 21,
            "componentType" : 5126,
            "count" : 192,
            "type" : "VEC3"
        },
        {
            "bufferView" : 22,
            "componentType" : 5126,
            "count" : 192,
            "type" : "VEC2"
        },
        {
            "bufferView" : 23,
            "componentType" : 5123,
            "count" : 288,
            "type" : "SCALAR"
        }
    ],
    "bufferViews" : [
        {
            "buffer" : 0,
            "byteLength" : 21108,
            "byteOffset" : 0
        },
        {
            "buffer" : 0,
            "byteLength" : 21108,
            "byteOffset" : 21108
        },
        {
            "buffer" : 0,
            "byteLength" : 14072,
            "byteOffset" : 42216
        },
        {
            "buffer" : 0,
            "byteLength" : 6192,
            "byteOffset" : 56288
        },
        {
            "buffer" : 0,
            "byteLength" : 624,
            "byteOffset" : 62480
        },
        {
            "buffer" : 0,
            "byteLength" : 624,
            "byteOffset" : 63104
        },
        {
            "buffer" : 0,
            "byteLength" : 416,
            "byteOffset" : 63728
        },
        {
            "buffer" : 0,
            "byteLength" : 288,
            "byteOffset" : 64144
        },
        {
            "buffer" : 0,
            "byteLength" : 75456,
            "byteOffset" : 64432
        },
        {
            "buffer" : 0,
            "byteLength" : 75456,
            "byteOffset" : 139888
        },
        {
            "buffer" : 0,
            "byteLength" : 50304,
            "byteOffset" : 215344
        },
        {
            "buffer" : 0,
            "byteLength" : 13092,
            "byteOffset" : 265648
        },
        {
            "buffer" : 0,
            "byteLength" : 42240,
            "byteOffset" : 278740
        },
        {
            "buffer" : 0,
            "byteLength" : 42240,
            "byteOffset" : 320980
        },
        {
            "buffer" : 0,
            "byteLength" : 28160,
            "byteOffset" : 363220
        },
        {
            "buffer" : 0,
            "byteLength" : 13200,
            "byteOffset" : 391380
        },
        {
            "buffer" : 0,
            "byteLength" : 21840,
            "byteOffset" : 404580
        },
        {
            "buffer" : 0,
            "byteLength" : 21840,
            "byteOffset" : 426420
        },
        {
            "buffer" : 0,
            "byteLength" : 14560,
            "byteOffset" : 448260
        },
        {
            "buffer" : 0,
            "byteLength" : 5928,
            "byteOffset" : 462820
        },
        {
            "buffer" : 0,
            "byteLength" : 2304,
            "byteOffset" : 468748
        },
        {
            "buffer" : 0,
            "byteLength" : 2304,
            "byteOffset" : 471052
        },
        {
            "buffer" : 0,
            "byteLength" : 1536,
            "byteOffset" : 473356
        },
        {
            "buffer" : 0,
            "byteLength" : 576,
            "byteOffset" : 474892
        }
    ],
    "buffers" : [
        {
            "byteLength" : 475468,
            "uri" : "data:application/octet-stream;base64,"
        }
    ]
}
