<?xml version="1.0" encoding="UTF-8"?>
<svg width="27px" height="27px" viewBox="0 0 27 27" version="1.1" xmlns="http://www.w3.org/2000/svg" xmlns:xlink="http://www.w3.org/1999/xlink">
    <!-- Generator: Sketch 55.2 (78181) - https://sketchapp.com -->
    <title>home</title>
    <desc>Created with Sketch.</desc>
    <g id="my" stroke="none" stroke-width="1" fill="none" fill-rule="evenodd">
        <g id="Blog" transform="translate(-237.000000, -168.000000)" fill="#3F444A" fill-rule="nonzero">
            <g id="home" transform="translate(237.000000, 168.000000)">
                <path d="M26.7290556,12.8176139 L24.7997009,10.8899395 L14.1828772,0.282362266 C13.8060095,-0.0941207554 13.1950132,-0.0941207554 12.8181454,0.282362266 L2.20126523,10.8899395 L0.270949076,12.818631 C-0.099358549,13.2017249 -0.0887831785,13.8121891 0.294644692,14.1821742 C0.6686848,14.5431187 1.26164073,14.5431187 1.63568084,14.1821742 L1.91748336,13.8986395 L1.91748336,26.0356543 C1.91748336,26.5682565 2.34960318,27 2.88266971,27 L24.1163736,27 C24.6494401,27 25.0815599,26.5682565 25.0815599,26.0356543 L25.0815599,13.8986395 L25.3643238,14.1812136 C25.7477517,14.5511987 26.358748,14.5405761 26.7290556,14.1575386 C27.0903148,13.7838243 27.0903148,13.1913283 26.7290556,12.8176139 Z M16.3950524,25.071365 L10.6040474,25.071365 L10.6040474,17.356712 L16.3950524,17.356712 L16.3950524,25.071365 Z M23.1511872,25.071365 L18.3253686,25.071365 L18.3253686,16.3924228 C18.3253686,15.8598205 17.8932488,15.428077 17.3601822,15.428077 L9.63886107,15.428077 C9.10579453,15.428077 8.67367472,15.8598205 8.67367472,16.3924228 L8.67367472,25.071365 L3.84785606,25.071365 L3.84785606,11.9700045 L13.4994934,2.32671649 L23.1511872,11.9700045 L23.1511872,25.071365 Z" id="Shape"></path>
            </g>
        </g>
    </g>
</svg>