<?xml version="1.0" encoding="UTF-8"?>
<svg width="27px" height="27px" viewBox="0 0 27 27" version="1.1" xmlns="http://www.w3.org/2000/svg" xmlns:xlink="http://www.w3.org/1999/xlink">
    <!-- Generator: Sketch 55.2 (78181) - https://sketchapp.com -->
    <title>newspaper</title>
    <desc>Created with Sketch.</desc>
    <g id="my" stroke="none" stroke-width="1" fill="none" fill-rule="evenodd">
        <g id="Home" transform="translate(-237.000000, -263.000000)" fill="#3F444A" fill-rule="nonzero">
            <g id="newspaper" transform="translate(237.000000, 263.000000)">
                <path d="M24.5144707,3.38902072 L20.2218926,3.38902072 L20.2218926,0.79101408 C20.2218926,0.354163371 19.8677285,0 19.430877,0 L0.791015625,0 C0.354164062,0 0,0.354163371 0,0.79101408 L0,22.8198597 C0,25.1247693 1.87518164,27 4.1800957,27 C4.1800957,27 17.3205527,27 22.819957,27 C25.1285098,27 27,25.1284607 27,22.8198597 L27,5.87454517 C27,4.50403417 25.8849844,3.38902072 24.5144707,3.38902072 Z M22.1975332,4.97104888 C22.086791,5.25518114 22.0289414,5.56040711 22.0289414,5.8745979 L22.0289414,8.47265728 L20.2218926,8.47265728 L20.2218926,4.97110162 L22.1975332,4.97110162 L22.1975332,4.97104888 Z M4.1800957,25.4178664 C2.74751367,25.4178664 1.58203125,24.252439 1.58203125,22.8198597 L1.58203125,1.58202816 L18.6398613,1.58202816 L18.6398613,22.8198597 C18.6398613,23.8020355 18.9794707,24.7044244 19.5465234,25.4178664 L4.1800957,25.4178664 Z M25.4179688,22.8198597 C25.4179688,24.2547593 24.2548066,25.4179191 22.8199043,25.4179191 C21.6609082,25.4179191 20.6795215,24.658862 20.3448691,23.6108738 L22.8199043,23.6108738 C23.2567559,23.6108738 23.6109199,23.2567104 23.6109199,22.8198597 C23.6109199,22.383009 23.2567559,22.0288456 22.8199043,22.0288456 L20.2218398,22.0288456 L20.2218398,20.2218003 L22.8199043,20.2218003 C23.2567559,20.2218003 23.6109199,19.867637 23.6109199,19.4307863 C23.6109199,18.9939356 23.2567559,18.6397722 22.8199043,18.6397722 L20.2218398,18.6397722 L20.2218398,16.8327269 L22.8199043,16.8327269 C23.2567559,16.8327269 23.6109199,16.4785635 23.6109199,16.0417128 C23.6109199,15.6048621 23.2567559,15.2506987 22.8199043,15.2506987 L20.2218398,15.2506987 L20.2218398,13.4436534 L22.8199043,13.4436534 C23.2567559,13.4436534 23.6109199,13.0894901 23.6109199,12.6526394 C23.6109199,12.2157886 23.2567559,11.8616253 22.8199043,11.8616253 L20.2218398,11.8616253 L20.2218398,10.05458 L22.8199043,10.05458 C23.2567559,10.05458 23.6109199,9.7004166 23.6109199,9.26356589 L23.6109199,5.8745979 C23.6109199,5.38105785 24.0099609,4.97104888 24.514418,4.97104888 C25.0125996,4.97104888 25.417916,5.37641723 25.417916,5.8745979 L25.417916,22.8198597 L25.4179688,22.8198597 Z" id="Shape"></path>
                <path d="M16.2350931,4 L4.76490686,4 C4.3424743,4 4,4.22386667 4,4.5 C4,4.77613333 4.3424743,5 4.76490686,5 L16.2350931,5 C16.6575257,5 17,4.77613333 17,4.5 C17,4.22386667 16.6575257,4 16.2350931,4 Z" id="Path"></path>
                <path d="M16.1842876,16 L11.8157124,16 C11.3652216,16 11,16.2238667 11,16.5 C11,16.7761333 11.3652216,17 11.8157124,17 L16.1842876,17 C16.6347784,17 17,16.7761333 17,16.5 C17,16.2238667 16.6347784,16 16.1842876,16 Z" id="Path"></path>
                <path d="M8.18428757,16 L3.81571243,16 C3.36522165,16 3,16.2238667 3,16.5 C3,16.7761333 3.36522165,17 3.81571243,17 L8.18428757,17 C8.63477835,17 9,16.7761333 9,16.5 C9,16.2238667 8.63477835,16 8.18428757,16 Z" id="Path"></path>
                <path d="M16.1842876,22 L11.8157124,22 C11.3652216,22 11,22.2238667 11,22.5 C11,22.7761333 11.3652216,23 11.8157124,23 L16.1842876,23 C16.6347784,23 17,22.7761333 17,22.5 C17,22.2238667 16.6347784,22 16.1842876,22 Z" id="Path"></path>
                <path d="M8.18428757,22 L3.81571243,22 C3.36522165,22 3,22.2238667 3,22.5 C3,22.7761333 3.36522165,23 3.81571243,23 L8.18428757,23 C8.63477835,23 9,22.7761333 9,22.5 C9,22.2238667 8.63477835,22 8.18428757,22 Z" id="Path"></path>
                <path d="M16.1842876,19 L11.8157124,19 C11.3652216,19 11,19.2238667 11,19.5 C11,19.7761333 11.3652216,20 11.8157124,20 L16.1842876,20 C16.6347784,20 17,19.7761333 17,19.5 C17,19.2238667 16.6347784,19 16.1842876,19 Z" id="Path"></path>
                <path d="M8.18428757,19 L3.81571243,19 C3.36522165,19 3,19.2238667 3,19.5 C3,19.7761333 3.36522165,20 3.81571243,20 L8.18428757,20 C8.63477835,20 9,19.7761333 9,19.5 C9,19.2238667 8.63477835,19 8.18428757,19 Z" id="Path"></path>
                <path d="M16.2350931,7 L4.76490686,7 C4.3424743,7 4,7.37193038 4,7.8306962 L4,13.1693038 C4,13.6280696 4.3424743,14 4.76490686,14 L16.2350931,14 C16.6575257,14 17,13.6280696 17,13.1693038 L17,7.8306962 C17,7.37193038 16.6575257,7 16.2350931,7 Z M15.4701863,12.338663 L5.52981372,12.338663 L5.52981372,8.66144778 L15.4701863,8.66144778 L15.4701863,12.338663 Z" id="Shape"></path>
            </g>
        </g>
    </g>
</svg>